<svg xmlns="http://www.w3.org/2000/svg" width="99" height="24" viewBox="0 0 99 24" fill="none">
<path fill-rule="evenodd" clip-rule="evenodd" d="M74.8368 11.969C74.8368 18.5674 80.1777 23.9345 86.7411 23.9345C93.3072 23.9345 98.6487 18.5695 98.6487 11.969C98.6487 5.3684 93.3072 0 86.74 0C84.8447 0.0012713 82.9573 0.460915 81.2852 1.32822C80.5849 1.6928 80.3131 2.55262 80.6798 3.24901C81.0449 3.94511 81.9089 4.21802 82.6111 3.85245C83.8947 3.1853 85.2842 2.84742 86.7411 2.84615C91.7271 2.84615 95.7854 6.94128 95.7854 11.969C95.7854 16.9967 91.7273 21.0884 86.7411 21.0884C81.7549 21.0884 77.7005 16.9967 77.7005 11.969C77.7005 10.2715 78.1642 8.61797 79.0428 7.18353C79.4539 6.51243 79.2382 5.63679 78.5643 5.22771C77.8864 4.81962 77.0066 5.03221 76.5957 5.70459C75.4446 7.58413 74.8368 9.75028 74.8368 11.969ZM43.6779 22.8657C43.9571 23.1438 44.3238 23.2825 44.6902 23.2825C45.0565 23.2825 45.4223 23.1438 45.7021 22.8657C46.2615 22.3117 46.2615 21.4093 45.7039 20.8532L41.3901 16.5633C40.831 16.007 39.9251 16.007 39.366 16.5633C38.8063 17.1172 38.8063 18.0195 39.364 18.5751L43.6779 22.8657ZM38.885 0.688931H28.6836C28.0888 0.688931 27.5798 1.048 27.3632 1.56005C27.2855 1.73606 27.2407 1.92929 27.2407 2.13312V21.819C27.2407 22.6056 27.8809 23.2424 28.6725 23.2424C29.4641 23.2424 30.1042 22.6056 30.1042 21.819V3.53579H38.885C41.2854 3.53579 43.2392 5.47663 43.2392 7.86441C43.2392 10.2522 41.2854 12.1936 38.885 12.1936H33.871C33.0795 12.1936 32.4391 12.8302 32.4391 13.6169C32.4391 14.4035 33.0795 15.0402 33.871 15.0402H38.885C42.864 15.0402 46.1028 11.8208 46.1028 7.86441C46.1028 3.90799 42.864 0.688931 38.885 0.688931ZM63.1975 11.8421H68.9973C69.7872 11.8421 70.4291 12.4786 70.4291 13.2656V21.8793C70.4291 22.6655 69.7891 23.3029 68.9972 23.3029C68.2053 23.3029 67.565 22.6655 67.565 21.8793V14.6884H63.1975C62.4074 14.6884 61.7656 14.0525 61.7656 13.2656C61.7656 12.4786 62.4074 11.8421 63.1975 11.8421ZM61.9142 24C55.3479 24 50.0071 18.6314 50.0071 12.0307C50.0071 5.43003 55.3477 0.064877 61.9142 0.064877C64.4994 0.064877 66.9593 0.884722 69.0286 2.43712C69.6589 2.91018 69.7832 3.80362 69.3087 4.43023C68.8326 5.05726 67.9351 5.18326 67.3028 4.70864C65.7343 3.53297 63.8716 2.91117 61.9144 2.91117C56.9282 2.91117 52.8701 7.00262 52.8701 12.0307C52.8701 17.0589 56.9282 21.154 61.9144 21.154C62.5449 21.154 63.1812 21.087 63.8018 20.955C64.5796 20.7838 65.3371 21.2797 65.5022 22.0488C65.6673 22.8175 65.1752 23.5731 64.4002 23.7378C63.5839 23.9121 62.7462 24 61.9144 24H61.9142ZM10.1864 21.8177C10.1864 22.6043 10.8274 23.241 11.6181 23.241C12.4089 23.241 13.0503 22.6043 13.0503 21.8177V13.3176C13.0503 12.5318 12.4088 11.895 11.6181 11.895C10.8274 11.895 10.1864 12.5318 10.1864 13.3176V21.8177ZM14.6093 9.62683C14.1991 9.62683 13.7916 9.45182 13.5088 9.11464C13.0022 8.50936 13.0857 7.61324 13.6931 7.10995L21.0323 1.03979C21.6396 0.536643 22.5419 0.618006 23.0478 1.22357C23.5543 1.82757 23.4713 2.72398 22.8635 3.22642L15.5248 9.29799C15.2571 9.51863 14.9326 9.62683 14.6093 9.62683ZM7.85991 9.29773C8.12751 9.51837 8.45167 9.62657 8.77484 9.62657C9.18527 9.62657 9.59328 9.45155 9.87665 9.11438C10.3822 8.5091 10.2986 7.61157 9.69134 7.10969L2.34758 1.03953C1.73976 0.53638 0.836198 0.619296 0.33084 1.2233C-0.174661 1.82717 -0.0915238 2.72513 0.516157 3.22616L7.85991 9.29773Z" fill="#F52A3B"/>
</svg>
