<svg width="146" height="142" viewBox="0 0 146 142" fill="none" xmlns="http://www.w3.org/2000/svg">
<g clip-path="url(#clip0_1817_2736)">
<path fill-rule="evenodd" clip-rule="evenodd" d="M72.6238 142C67.6634 142 63.641 138.015 63.641 133.094V79.903C63.641 74.9848 67.6634 71 72.6238 71C77.5876 71 81.61 74.9848 81.61 79.903V133.094C81.61 138.015 77.5876 142 72.6238 142Z" fill="#f52a3b"/>
<path fill-rule="evenodd" clip-rule="evenodd" d="M91.292 55.8937C88.7318 55.8937 86.193 54.8104 84.4271 52.7246C81.2678 48.9828 81.789 43.4414 85.576 40.3284L131.357 2.79352C135.144 -0.316025 140.775 0.187094 143.931 3.92905C147.09 7.66401 146.573 13.2088 142.782 16.3149L97.0044 53.8601C95.3344 55.2263 93.3097 55.8937 91.292 55.8937Z" fill="#f52a3b"/>
<mask id="mask0_1817_2736" style="mask-type:alpha" maskUnits="userSpaceOnUse" x="0" y="0" width="64" height="57">
<path fill-rule="evenodd" clip-rule="evenodd" d="M0 56.8854V0.692932H63.4873V56.8854H0Z" fill="#f52a3b"/>
</mask>
<g mask="url(#mask0_1817_2736)">
<path fill-rule="evenodd" clip-rule="evenodd" d="M54.5761 56.8854C52.5681 56.8854 50.5492 56.2054 48.8875 54.8129L3.21087 16.5475C-0.568699 13.3925 -1.08843 7.73067 2.05826 3.92408C5.20142 0.12102 10.823 -0.402432 14.5991 2.76678L60.2758 41.0215C64.0551 44.1872 64.5749 49.842 61.4283 53.6557C59.6675 55.7816 57.1289 56.8854 54.5761 56.8854Z" fill="#f52a3b"/>
</g>
</g>
<defs>
<clipPath id="clip0_1817_2736">
<rect width="146" height="142" fill="#f52a3b"/>
</clipPath>
</defs>
</svg>
