<svg width="32" height="32" viewBox="0 0 32 32" fill="none" xmlns="http://www.w3.org/2000/svg">
<g id="atom/icon/category">
<g id="Vector">
<path d="M18.6666 5.33325H26.6666V13.3333H18.6666V5.33325Z" stroke="black" stroke-width="2" stroke-linecap="round" stroke-linejoin="round"/>
<path d="M5.33325 18.6666H13.3333V26.6666H5.33325V18.6666Z" stroke="black" stroke-width="2" stroke-linecap="round" stroke-linejoin="round"/>
<path d="M18.6666 22.6666C18.6666 23.7275 19.088 24.7449 19.8382 25.495C20.5883 26.2452 21.6057 26.6666 22.6666 26.6666C23.7275 26.6666 24.7449 26.2452 25.495 25.495C26.2452 24.7449 26.6666 23.7275 26.6666 22.6666C26.6666 21.6057 26.2452 20.5883 25.495 19.8382C24.7449 19.088 23.7275 18.6666 22.6666 18.6666C21.6057 18.6666 20.5883 19.088 19.8382 19.8382C19.088 20.5883 18.6666 21.6057 18.6666 22.6666Z" stroke="black" stroke-width="2" stroke-linecap="round" stroke-linejoin="round"/>
<path d="M5.33325 9.33325C5.33325 9.85854 5.43672 10.3787 5.63773 10.864C5.83875 11.3493 6.13339 11.7902 6.50482 12.1617C6.87626 12.5331 7.31722 12.8278 7.80252 13.0288C8.28782 13.2298 8.80796 13.3333 9.33325 13.3333C9.85854 13.3333 10.3787 13.2298 10.864 13.0288C11.3493 12.8278 11.7902 12.5331 12.1617 12.1617C12.5331 11.7902 12.8278 11.3493 13.0288 10.864C13.2298 10.3787 13.3333 9.85854 13.3333 9.33325C13.3333 8.80796 13.2298 8.28782 13.0288 7.80252C12.8278 7.31722 12.5331 6.87626 12.1617 6.50482C11.7902 6.13339 11.3493 5.83875 10.864 5.63773C10.3787 5.43671 9.85854 5.33325 9.33325 5.33325C8.80796 5.33325 8.28782 5.43671 7.80252 5.63773C7.31722 5.83875 6.87626 6.13339 6.50482 6.50482C6.13339 6.87626 5.83875 7.31722 5.63773 7.80252C5.43672 8.28782 5.33325 8.80796 5.33325 9.33325Z" stroke="black" stroke-width="2" stroke-linecap="round" stroke-linejoin="round"/>
</g>
</g>
</svg>
