<svg width="64" height="64" viewBox="0 0 64 64" fill="none" xmlns="http://www.w3.org/2000/svg">
<g id="chevron-right-large">
<path id="Vector" d="M45.415 33.415L25.415 53.415C25.2292 53.6008 25.0086 53.7482 24.7658 53.8488C24.523 53.9494 24.2628 54.0011 24 54.0011C23.7372 54.0011 23.477 53.9494 23.2342 53.8488C22.9914 53.7482 22.7708 53.6008 22.585 53.415C22.3992 53.2292 22.2518 53.0086 22.1512 52.7658C22.0507 52.523 21.9989 52.2628 21.9989 52C21.9989 51.7372 22.0507 51.477 22.1512 51.2342C22.2518 50.9914 22.3992 50.7708 22.585 50.585L41.1725 32L22.585 13.415C22.2097 13.0397 21.9989 12.5307 21.9989 12C21.9989 11.4693 22.2097 10.9603 22.585 10.585C22.9603 10.2097 23.4693 9.9989 24 9.9989C24.5307 9.9989 25.0397 10.2097 25.415 10.585L45.415 30.585C45.601 30.7708 45.7485 30.9913 45.8491 31.2341C45.9498 31.4769 46.0016 31.7372 46.0016 32C46.0016 32.2628 45.9498 32.5231 45.8491 32.7659C45.7485 33.0087 45.601 33.2293 45.415 33.415Z" fill="white"/>
</g>
</svg>
