<svg width="64" height="64" viewBox="0 0 64 64" fill="none" xmlns="http://www.w3.org/2000/svg">
<g id="chevron-left-large">
<path id="Vector" d="M41.415 50.585C41.6008 50.7708 41.7482 50.9914 41.8488 51.2342C41.9493 51.477 42.0011 51.7372 42.0011 52C42.0011 52.2628 41.9493 52.523 41.8488 52.7658C41.7482 53.0086 41.6008 53.2292 41.415 53.415C41.2292 53.6008 41.0086 53.7482 40.7658 53.8488C40.523 53.9494 40.2628 54.0011 40 54.0011C39.7372 54.0011 39.477 53.9494 39.2342 53.8488C38.9914 53.7482 38.7708 53.6008 38.585 53.415L18.585 33.415C18.399 33.2293 18.2515 33.0087 18.1509 32.7659C18.0502 32.5231 17.9984 32.2628 17.9984 32C17.9984 31.7372 18.0502 31.4769 18.1509 31.2341C18.2515 30.9913 18.399 30.7708 18.585 30.585L38.585 10.585C38.9603 10.2097 39.4693 9.9989 40 9.9989C40.5307 9.9989 41.0397 10.2097 41.415 10.585C41.7903 10.9603 42.0011 11.4693 42.0011 12C42.0011 12.5307 41.7903 13.0397 41.415 13.415L22.8275 32L41.415 50.585Z" fill="white"/>
</g>
</svg>
