<svg width="20" height="20" viewBox="0 0 20 20" fill="none" xmlns="http://www.w3.org/2000/svg">
<path id="Vector" d="M19.5299 18.4693L14.8358 13.7762C16.1963 12.1428 16.8748 10.0478 16.73 7.92691C16.5852 5.80604 15.6283 3.82265 14.0584 2.38932C12.4885 0.955989 10.4264 0.183083 8.30115 0.231383C6.1759 0.279683 4.15108 1.14547 2.64791 2.64864C1.14474 4.15181 0.27895 6.17663 0.23065 8.30188C0.18235 10.4271 0.955257 12.4892 2.38859 14.0591C3.82191 15.629 5.80531 16.5859 7.92618 16.7307C10.047 16.8755 12.1421 16.1971 13.7755 14.8365L18.4686 19.5306C18.5383 19.6003 18.621 19.6556 18.7121 19.6933C18.8031 19.731 18.9007 19.7504 18.9992 19.7504C19.0978 19.7504 19.1954 19.731 19.2864 19.6933C19.3775 19.6556 19.4602 19.6003 19.5299 19.5306C19.5995 19.4609 19.6548 19.3782 19.6925 19.2871C19.7302 19.1961 19.7497 19.0985 19.7497 19C19.7497 18.9014 19.7302 18.8038 19.6925 18.7128C19.6548 18.6218 19.5995 18.539 19.5299 18.4693ZM1.74924 8.49997C1.74924 7.16495 2.14512 5.8599 2.88682 4.74987C3.62852 3.63984 4.68272 2.77467 5.91612 2.26378C7.14953 1.75289 8.50673 1.61922 9.8161 1.87967C11.1255 2.14012 12.3282 2.78299 13.2722 3.727C14.2162 4.671 14.8591 5.87374 15.1195 7.18311C15.38 8.49248 15.2463 9.84968 14.7354 11.0831C14.2245 12.3165 13.3594 13.3707 12.2493 14.1124C11.1393 14.8541 9.83426 15.25 8.49924 15.25C6.70964 15.248 4.9939 14.5362 3.72846 13.2708C2.46302 12.0053 1.75122 10.2896 1.74924 8.49997Z" fill="#202020"/>
</svg>
