<svg width="24" height="24" viewBox="0 0 24 24" fill="none" xmlns="http://www.w3.org/2000/svg">
<path fill-rule="evenodd" clip-rule="evenodd" d="M1.79999 12C1.79999 13.3395 2.06382 14.6658 2.57642 15.9034C3.08901 17.1409 3.84034 18.2653 4.7875 19.2125C5.73466 20.1596 6.8591 20.911 8.09662 21.4236C9.33414 21.9362 10.6605 22.2 12 22.2C13.3395 22.2 14.6658 21.9362 15.9034 21.4236C17.1409 20.911 18.2653 20.1596 19.2125 19.2125C20.1596 18.2653 20.911 17.1409 21.4236 15.9034C21.9362 14.6658 22.2 13.3395 22.2 12C22.2 9.29478 21.1253 6.70037 19.2125 4.7875C17.2996 2.87463 14.7052 1.79999 12 1.79999C9.29478 1.79999 6.70037 2.87463 4.7875 4.7875C2.87463 6.70037 1.79999 9.29478 1.79999 12ZM21 12C21 14.3869 20.0518 16.6761 18.3639 18.3639C16.6761 20.0518 14.3869 21 12 21C9.61304 21 7.32385 20.0518 5.63603 18.3639C3.9482 16.6761 2.99999 14.3869 2.99999 12C2.99999 9.61304 3.9482 7.32385 5.63603 5.63603C7.32385 3.9482 9.61304 2.99999 12 2.99999C14.3869 2.99999 16.6761 3.9482 18.3639 5.63603C20.0518 7.32385 21 9.61304 21 12Z" fill="black"/>
<path fill-rule="evenodd" clip-rule="evenodd" d="M7.79999 12C7.79999 17.2752 9.53039 21.6 12 21.6C14.4696 21.6 16.2 17.2752 16.2 12C16.2 6.72476 14.4696 2.39996 12 2.39996C9.53039 2.39996 7.79999 6.72476 7.79999 12ZM15 12C15 16.6668 13.506 20.4 12 20.4C10.494 20.4 8.99999 16.6668 8.99999 12C8.99999 7.33316 10.494 3.59996 12 3.59996C13.506 3.59996 15 7.33316 15 12Z" fill="black"/>
<path d="M4.48196 6.37441L5.28596 5.48401C5.41436 5.59921 5.55116 5.71201 5.69756 5.82121C7.27916 7.00681 9.77516 7.72921 12.4956 7.72921C14.8152 7.72921 16.98 7.20481 18.5616 6.30121C18.926 6.09503 19.2703 5.85518 19.59 5.58481L20.37 6.49681C20.0124 6.80281 19.6068 7.08481 19.158 7.34161C17.3856 8.35561 15.0156 8.92921 12.4956 8.92921C9.53156 8.92921 6.78116 8.13361 4.97756 6.78121C4.80619 6.65289 4.64081 6.51795 4.48196 6.37441ZM4.48196 17.64L5.28596 18.528C5.41436 18.4128 5.55116 18.3 5.69756 18.192C7.27916 17.0064 9.77516 16.284 12.4956 16.284C14.8152 16.284 16.98 16.8072 18.5616 17.712C18.9468 17.9328 19.2912 18.1728 19.59 18.4272L20.37 17.5152C19.9932 17.1964 19.5875 16.9135 19.158 16.6704C17.3856 15.6576 15.0156 15.084 12.4956 15.084C9.53156 15.084 6.78116 15.8796 4.97756 17.2308C4.80236 17.3628 4.63676 17.4996 4.48196 17.64ZM2.39996 12.6V11.4H21.6V12.6H2.39996Z" fill="black"/>
</svg>
